<mxfile host="app.diagrams.net" modified="2022-07-24T08:38:26.724Z" agent="5.0 (Windows NT 10.0; Win64; x64) AppleWebKit/537.36 (KHTML, like Gecko) Chrome/103.0.0.0 Safari/537.36" etag="LO6zpo4Wyc6wKNehqC9M" version="20.1.4" type="github">
  <diagram name="Page-1" id="e7e014a7-5840-1c2e-5031-d8a46d1fe8dd">
    <mxGraphModel dx="1550" dy="867" grid="1" gridSize="10" guides="1" tooltips="1" connect="1" arrows="1" fold="1" page="1" pageScale="1" pageWidth="1169" pageHeight="826" background="none" math="0" shadow="0">
      <root>
        <mxCell id="0" />
        <mxCell id="1" parent="0" />
        <mxCell id="2" value="监控系统" style="swimlane;whiteSpace=wrap;startSize=23;" parent="1" vertex="1">
          <mxGeometry x="164.5" y="128" width="280" height="570" as="geometry" />
        </mxCell>
        <mxCell id="5" value="" style="ellipse;shape=startState;fillColor=#000000;strokeColor=#ff0000;" parent="2" vertex="1">
          <mxGeometry x="139.5" y="40" width="30" height="30" as="geometry" />
        </mxCell>
        <mxCell id="6" value="" style="edgeStyle=elbowEdgeStyle;elbow=horizontal;verticalAlign=bottom;endArrow=open;endSize=8;strokeColor=#FF0000;endFill=1;rounded=0" parent="2" source="5" target="7" edge="1">
          <mxGeometry x="139.5" y="40" as="geometry">
            <mxPoint x="154.5" y="110" as="targetPoint" />
          </mxGeometry>
        </mxCell>
        <mxCell id="7" value="告警并生成工单" style="" parent="2" vertex="1">
          <mxGeometry x="99.5" y="110" width="110" height="50" as="geometry" />
        </mxCell>
        <mxCell id="9" value="" style="endArrow=open;strokeColor=#FF0000;endFill=1;rounded=0;entryX=0.5;entryY=0;entryDx=0;entryDy=0;" parent="2" target="6XRg9CFG3OLqOiXD3lJk-41" edge="1">
          <mxGeometry relative="1" as="geometry">
            <mxPoint x="155" y="162" as="sourcePoint" />
            <mxPoint x="155" y="220" as="targetPoint" />
          </mxGeometry>
        </mxCell>
        <mxCell id="10" value="催单" style="" parent="2" vertex="1">
          <mxGeometry x="99.5" y="412" width="110" height="50" as="geometry" />
        </mxCell>
        <mxCell id="6XRg9CFG3OLqOiXD3lJk-41" value="是否结单" style="rhombus;fillColor=#ffffc0;strokeColor=#ff0000;" vertex="1" parent="2">
          <mxGeometry x="114.5" y="192" width="80" height="40" as="geometry" />
        </mxCell>
        <mxCell id="13" value="" style="ellipse;shape=startState;fillColor=#000000;strokeColor=#ff0000;" parent="2" vertex="1">
          <mxGeometry x="15.5" y="197" width="30" height="30" as="geometry" />
        </mxCell>
        <mxCell id="22" value="yes" style="edgeStyle=elbowEdgeStyle;elbow=horizontal;align=left;verticalAlign=bottom;endArrow=open;endSize=8;strokeColor=#FF0000;endFill=1;rounded=0;" parent="2" source="6XRg9CFG3OLqOiXD3lJk-41" target="13" edge="1">
          <mxGeometry x="0.2453" y="-3" relative="1" as="geometry">
            <mxPoint x="95.5" y="305" as="targetPoint" />
            <Array as="points" />
            <mxPoint x="1" as="offset" />
          </mxGeometry>
        </mxCell>
        <mxCell id="6XRg9CFG3OLqOiXD3lJk-53" value="是否屏蔽" style="rhombus;fillColor=#ffffc0;strokeColor=#ff0000;" vertex="1" parent="2">
          <mxGeometry x="114.5" y="292" width="80" height="40" as="geometry" />
        </mxCell>
        <mxCell id="6XRg9CFG3OLqOiXD3lJk-54" value="yes" style="edgeStyle=elbowEdgeStyle;elbow=horizontal;align=left;verticalAlign=bottom;endArrow=open;endSize=8;strokeColor=#FF0000;endFill=1;rounded=0;" edge="1" parent="2" source="6XRg9CFG3OLqOiXD3lJk-53" target="6XRg9CFG3OLqOiXD3lJk-41">
          <mxGeometry x="0.2453" y="-3" relative="1" as="geometry">
            <mxPoint x="245.5" y="202" as="targetPoint" />
            <Array as="points">
              <mxPoint x="226" y="252" />
            </Array>
            <mxPoint x="84.5" y="312" as="sourcePoint" />
            <mxPoint x="1" as="offset" />
          </mxGeometry>
        </mxCell>
        <mxCell id="6XRg9CFG3OLqOiXD3lJk-55" value="no" style="edgeStyle=elbowEdgeStyle;elbow=horizontal;align=left;verticalAlign=bottom;endArrow=open;endSize=8;strokeColor=#FF0000;endFill=1;rounded=0;exitX=0.5;exitY=1;exitDx=0;exitDy=0;" edge="1" parent="2" source="6XRg9CFG3OLqOiXD3lJk-41" target="6XRg9CFG3OLqOiXD3lJk-53">
          <mxGeometry x="0.2453" y="-3" relative="1" as="geometry">
            <mxPoint x="55.5" y="222" as="targetPoint" />
            <Array as="points" />
            <mxPoint x="124.5" y="222" as="sourcePoint" />
            <mxPoint x="1" as="offset" />
          </mxGeometry>
        </mxCell>
        <mxCell id="6XRg9CFG3OLqOiXD3lJk-56" value="yes" style="edgeStyle=elbowEdgeStyle;elbow=horizontal;align=left;verticalAlign=bottom;endArrow=open;endSize=8;strokeColor=#FF0000;endFill=1;rounded=0;exitX=0.5;exitY=1;exitDx=0;exitDy=0;entryX=0.505;entryY=-0.02;entryDx=0;entryDy=0;entryPerimeter=0;" edge="1" parent="2" source="6XRg9CFG3OLqOiXD3lJk-53" target="10">
          <mxGeometry x="0.2453" y="-3" relative="1" as="geometry">
            <mxPoint x="155.5" y="402" as="targetPoint" />
            <Array as="points">
              <mxPoint x="155.5" y="362" />
            </Array>
            <mxPoint x="124.5" y="222" as="sourcePoint" />
            <mxPoint x="1" as="offset" />
          </mxGeometry>
        </mxCell>
        <mxCell id="3" value="活动开发" style="swimlane;whiteSpace=wrap" parent="1" vertex="1">
          <mxGeometry x="444.5" y="128" width="280" height="570" as="geometry">
            <mxRectangle x="444.5" y="128" width="90" height="30" as="alternateBounds" />
          </mxGeometry>
        </mxCell>
        <mxCell id="15" value="收到告警和工单" style="" parent="3" vertex="1">
          <mxGeometry x="85.5" y="110" width="110" height="50" as="geometry" />
        </mxCell>
        <mxCell id="16" value="处理工单" style="" parent="3" vertex="1">
          <mxGeometry x="85.5" y="192" width="110" height="50" as="geometry" />
        </mxCell>
        <mxCell id="20" value="" style="endArrow=open;strokeColor=#FF0000;endFill=1;rounded=0;entryX=-0.015;entryY=0.5;entryDx=0;entryDy=0;entryPerimeter=0;exitX=1.007;exitY=0.484;exitDx=0;exitDy=0;exitPerimeter=0;" parent="1" source="7" target="15" edge="1">
          <mxGeometry relative="1" as="geometry">
            <mxPoint x="335" y="263" as="sourcePoint" />
            <mxPoint x="465" y="263" as="targetPoint" />
          </mxGeometry>
        </mxCell>
      </root>
    </mxGraphModel>
  </diagram>
</mxfile>
